{
	"patcher" : 	{
		"fileversion" : 1,
		"rect" : [ 385.0, 44.0, 605.0, 772.0 ],
		"bglocked" : 0,
		"defrect" : [ 385.0, 44.0, 605.0, 772.0 ],
		"openrect" : [ 0.0, 0.0, 0.0, 0.0 ],
		"openinpresentation" : 1,
		"default_fontsize" : 10.0,
		"default_fontface" : 0,
		"default_fontname" : "Futura Medium",
		"gridonopen" : 0,
		"gridsize" : [ 10.0, 10.0 ],
		"gridsnaponopen" : 0,
		"toolbarvisible" : 1,
		"boxanimatetime" : 200,
		"imprint" : 0,
		"metadata" : [  ],
		"boxes" : [ 			{
				"box" : 				{
					"maxclass" : "message",
					"text" : "set 1",
					"numoutlets" : 1,
					"outlettype" : [ "" ],
					"fontsize" : 10.0,
					"patching_rect" : [ 190.0, 600.0, 32.5, 18.0 ],
					"id" : "obj-28",
					"fontname" : "Futura Medium",
					"numinlets" : 2
				}

			}
, 			{
				"box" : 				{
					"maxclass" : "message",
					"text" : "set 1",
					"numoutlets" : 1,
					"outlettype" : [ "" ],
					"fontsize" : 10.0,
					"patching_rect" : [ 40.0, 590.0, 32.5, 18.0 ],
					"id" : "obj-27",
					"fontname" : "Futura Medium",
					"numinlets" : 2
				}

			}
, 			{
				"box" : 				{
					"maxclass" : "message",
					"text" : "set 1",
					"numoutlets" : 1,
					"outlettype" : [ "" ],
					"fontsize" : 10.0,
					"patching_rect" : [ 30.0, 410.0, 32.5, 18.0 ],
					"id" : "obj-24",
					"fontname" : "Futura Medium",
					"numinlets" : 2
				}

			}
, 			{
				"box" : 				{
					"maxclass" : "message",
					"text" : "set 1",
					"numoutlets" : 1,
					"outlettype" : [ "" ],
					"fontsize" : 10.0,
					"patching_rect" : [ 60.0, 240.0, 32.5, 18.0 ],
					"id" : "obj-23",
					"fontname" : "Futura Medium",
					"numinlets" : 2
				}

			}
, 			{
				"box" : 				{
					"maxclass" : "newobj",
					"text" : "s selbang",
					"numoutlets" : 0,
					"fontsize" : 10.0,
					"patching_rect" : [ 150.0, 660.0, 53.0, 20.0 ],
					"id" : "obj-21",
					"fontname" : "Futura Medium",
					"numinlets" : 1
				}

			}
, 			{
				"box" : 				{
					"maxclass" : "newobj",
					"text" : "s selbang",
					"numoutlets" : 0,
					"fontsize" : 10.0,
					"patching_rect" : [ 140.0, 450.0, 53.0, 20.0 ],
					"id" : "obj-20",
					"fontname" : "Futura Medium",
					"numinlets" : 1
				}

			}
, 			{
				"box" : 				{
					"maxclass" : "newobj",
					"text" : "s selbang",
					"numoutlets" : 0,
					"fontsize" : 10.0,
					"patching_rect" : [ 150.0, 280.0, 53.0, 20.0 ],
					"id" : "obj-17",
					"fontname" : "Futura Medium",
					"numinlets" : 1
				}

			}
, 			{
				"box" : 				{
					"maxclass" : "newobj",
					"text" : "r selbang",
					"numoutlets" : 1,
					"outlettype" : [ "" ],
					"fontsize" : 10.0,
					"patching_rect" : [ 220.0, 130.0, 53.0, 20.0 ],
					"id" : "obj-14",
					"fontname" : "Futura Medium",
					"numinlets" : 0
				}

			}
, 			{
				"box" : 				{
					"maxclass" : "newobj",
					"text" : "t s b",
					"numoutlets" : 2,
					"outlettype" : [ "", "bang" ],
					"fontsize" : 10.0,
					"patching_rect" : [ 190.0, 110.0, 32.5, 20.0 ],
					"id" : "obj-25",
					"fontname" : "Futura Medium",
					"numinlets" : 1
				}

			}
, 			{
				"box" : 				{
					"maxclass" : "message",
					"text" : "set 0",
					"numoutlets" : 1,
					"outlettype" : [ "" ],
					"fontsize" : 10.0,
					"patching_rect" : [ 150.0, 340.0, 32.5, 18.0 ],
					"id" : "obj-16",
					"fontname" : "Futura Medium",
					"numinlets" : 2
				}

			}
, 			{
				"box" : 				{
					"maxclass" : "message",
					"text" : "set 0",
					"numoutlets" : 1,
					"outlettype" : [ "" ],
					"fontsize" : 10.0,
					"patching_rect" : [ 140.0, 170.0, 32.5, 18.0 ],
					"id" : "obj-15",
					"fontname" : "Futura Medium",
					"numinlets" : 2
				}

			}
, 			{
				"box" : 				{
					"maxclass" : "newobj",
					"text" : "t 2 128 b",
					"numoutlets" : 3,
					"outlettype" : [ "int", "int", "bang" ],
					"fontsize" : 10.0,
					"patching_rect" : [ 100.0, 600.0, 53.0, 20.0 ],
					"id" : "obj-13",
					"fontname" : "Futura Medium",
					"numinlets" : 1
				}

			}
, 			{
				"box" : 				{
					"maxclass" : "newobj",
					"text" : "t 3 128 b",
					"numoutlets" : 3,
					"outlettype" : [ "int", "int", "bang" ],
					"fontsize" : 10.0,
					"patching_rect" : [ 160.0, 620.0, 53.0, 20.0 ],
					"id" : "obj-12",
					"fontname" : "Futura Medium",
					"numinlets" : 1
				}

			}
, 			{
				"box" : 				{
					"maxclass" : "newobj",
					"text" : "t 4 256 b",
					"numoutlets" : 3,
					"outlettype" : [ "int", "int", "bang" ],
					"fontsize" : 10.0,
					"patching_rect" : [ 100.0, 260.0, 53.0, 20.0 ],
					"id" : "obj-11",
					"fontname" : "Futura Medium",
					"numinlets" : 1
				}

			}
, 			{
				"box" : 				{
					"maxclass" : "newobj",
					"text" : "t 1 64 b",
					"numoutlets" : 3,
					"outlettype" : [ "int", "int", "bang" ],
					"fontsize" : 10.0,
					"patching_rect" : [ 100.0, 430.0, 47.0, 20.0 ],
					"id" : "obj-10",
					"fontname" : "Futura Medium",
					"numinlets" : 1
				}

			}
, 			{
				"box" : 				{
					"maxclass" : "newobj",
					"text" : "s mmodel",
					"numoutlets" : 0,
					"fontsize" : 10.0,
					"patching_rect" : [ 70.0, 650.0, 53.0, 20.0 ],
					"id" : "obj-9",
					"fontname" : "Futura Medium",
					"numinlets" : 1
				}

			}
, 			{
				"box" : 				{
					"maxclass" : "newobj",
					"text" : "del 200",
					"numoutlets" : 1,
					"outlettype" : [ "bang" ],
					"fontsize" : 10.0,
					"patching_rect" : [ 380.0, 300.0, 46.0, 20.0 ],
					"id" : "obj-8",
					"fontname" : "Futura Medium",
					"numinlets" : 2
				}

			}
, 			{
				"box" : 				{
					"maxclass" : "newobj",
					"text" : "loadbang",
					"numoutlets" : 1,
					"outlettype" : [ "bang" ],
					"fontsize" : 10.0,
					"patching_rect" : [ 380.0, 270.0, 54.0, 20.0 ],
					"id" : "obj-7",
					"fontname" : "Futura Medium",
					"numinlets" : 1
				}

			}
, 			{
				"box" : 				{
					"maxclass" : "newobj",
					"text" : "s sys/report",
					"numoutlets" : 0,
					"fontsize" : 10.0,
					"patching_rect" : [ 380.0, 350.0, 64.0, 20.0 ],
					"id" : "obj-1",
					"fontname" : "Futura Medium",
					"numinlets" : 1
				}

			}
, 			{
				"box" : 				{
					"maxclass" : "newobj",
					"text" : "t 1 64",
					"numoutlets" : 2,
					"outlettype" : [ "int", "int" ],
					"fontsize" : 10.0,
					"patching_rect" : [ 100.0, 340.0, 38.0, 20.0 ],
					"id" : "obj-90",
					"fontname" : "Futura Medium",
					"numinlets" : 1
				}

			}
, 			{
				"box" : 				{
					"maxclass" : "newobj",
					"text" : "sel \"64\" 40h",
					"numoutlets" : 3,
					"outlettype" : [ "bang", "bang", "" ],
					"fontsize" : 10.0,
					"patching_rect" : [ 100.0, 310.0, 69.0, 20.0 ],
					"id" : "obj-91",
					"fontname" : "Futura Medium",
					"numinlets" : 1
				}

			}
, 			{
				"box" : 				{
					"maxclass" : "newobj",
					"text" : "p 128orient",
					"numoutlets" : 2,
					"outlettype" : [ "", "int" ],
					"fontsize" : 10.0,
					"patching_rect" : [ 100.0, 490.0, 109.0, 20.0 ],
					"id" : "obj-88",
					"fontname" : "Futura Medium",
					"numinlets" : 3,
					"patcher" : 					{
						"fileversion" : 1,
						"rect" : [ 41.0, 170.0, 327.0, 423.0 ],
						"bglocked" : 0,
						"defrect" : [ 41.0, 170.0, 327.0, 423.0 ],
						"openrect" : [ 0.0, 0.0, 0.0, 0.0 ],
						"openinpresentation" : 0,
						"default_fontsize" : 10.0,
						"default_fontface" : 0,
						"default_fontname" : "Futura Medium",
						"gridonopen" : 0,
						"gridsize" : [ 10.0, 10.0 ],
						"gridsnaponopen" : 0,
						"toolbarvisible" : 1,
						"boxanimatetime" : 200,
						"imprint" : 0,
						"metadata" : [  ],
						"boxes" : [ 							{
								"box" : 								{
									"maxclass" : "inlet",
									"numoutlets" : 1,
									"outlettype" : [ "bang" ],
									"patching_rect" : [ 220.0, 110.0, 25.0, 25.0 ],
									"id" : "obj-2",
									"numinlets" : 0,
									"comment" : ""
								}

							}
, 							{
								"box" : 								{
									"maxclass" : "message",
									"text" : "set 0",
									"numoutlets" : 1,
									"outlettype" : [ "" ],
									"fontsize" : 10.0,
									"patching_rect" : [ 40.0, 240.0, 32.5, 18.0 ],
									"id" : "obj-18",
									"fontname" : "Futura Medium",
									"numinlets" : 2
								}

							}
, 							{
								"box" : 								{
									"maxclass" : "message",
									"text" : "set 0",
									"numoutlets" : 1,
									"outlettype" : [ "" ],
									"fontsize" : 10.0,
									"patching_rect" : [ 150.0, 240.0, 32.5, 18.0 ],
									"id" : "obj-17",
									"fontname" : "Futura Medium",
									"numinlets" : 2
								}

							}
, 							{
								"box" : 								{
									"maxclass" : "newobj",
									"text" : "t 1 128",
									"numoutlets" : 2,
									"outlettype" : [ "int", "int" ],
									"fontsize" : 10.0,
									"patching_rect" : [ 110.0, 240.0, 44.0, 20.0 ],
									"id" : "obj-7",
									"fontname" : "Futura Medium",
									"numinlets" : 1
								}

							}
, 							{
								"box" : 								{
									"maxclass" : "outlet",
									"numoutlets" : 0,
									"patching_rect" : [ 50.0, 330.0, 25.0, 25.0 ],
									"id" : "obj-1",
									"numinlets" : 1,
									"comment" : "horizontal"
								}

							}
, 							{
								"box" : 								{
									"maxclass" : "newobj",
									"text" : "t 1 128",
									"numoutlets" : 2,
									"outlettype" : [ "int", "int" ],
									"fontsize" : 10.0,
									"patching_rect" : [ 70.0, 240.0, 44.0, 20.0 ],
									"id" : "obj-84",
									"fontname" : "Futura Medium",
									"numinlets" : 1
								}

							}
, 							{
								"box" : 								{
									"maxclass" : "newobj",
									"text" : "sel left right up bottom",
									"numoutlets" : 5,
									"outlettype" : [ "bang", "bang", "bang", "bang", "" ],
									"fontsize" : 10.0,
									"patching_rect" : [ 50.0, 200.0, 139.0, 20.0 ],
									"id" : "obj-70",
									"fontname" : "Futura Medium",
									"numinlets" : 1
								}

							}
, 							{
								"box" : 								{
									"maxclass" : "newobj",
									"text" : "t 0",
									"numoutlets" : 1,
									"outlettype" : [ "int" ],
									"fontsize" : 10.0,
									"patching_rect" : [ 90.0, 120.0, 22.0, 20.0 ],
									"id" : "obj-67",
									"fontname" : "Futura Medium",
									"numinlets" : 1
								}

							}
, 							{
								"box" : 								{
									"maxclass" : "newobj",
									"text" : "t 1",
									"numoutlets" : 1,
									"outlettype" : [ "int" ],
									"fontsize" : 10.0,
									"patching_rect" : [ 50.0, 120.0, 22.0, 20.0 ],
									"id" : "obj-68",
									"fontname" : "Futura Medium",
									"numinlets" : 1
								}

							}
, 							{
								"box" : 								{
									"maxclass" : "newobj",
									"text" : "sel \"128\"",
									"numoutlets" : 2,
									"outlettype" : [ "bang", "" ],
									"fontsize" : 10.0,
									"patching_rect" : [ 50.0, 90.0, 59.0, 20.0 ],
									"id" : "obj-69",
									"fontname" : "Futura Medium",
									"numinlets" : 1
								}

							}
, 							{
								"box" : 								{
									"maxclass" : "newobj",
									"text" : "gate",
									"numoutlets" : 1,
									"outlettype" : [ "" ],
									"fontsize" : 10.0,
									"patching_rect" : [ 50.0, 160.0, 82.5, 20.0 ],
									"id" : "obj-56",
									"fontname" : "Futura Medium",
									"numinlets" : 2
								}

							}
, 							{
								"box" : 								{
									"maxclass" : "inlet",
									"numoutlets" : 1,
									"outlettype" : [ "" ],
									"patching_rect" : [ 50.0, 40.0, 25.0, 25.0 ],
									"id" : "obj-85",
									"numinlets" : 0,
									"comment" : ""
								}

							}
, 							{
								"box" : 								{
									"maxclass" : "inlet",
									"numoutlets" : 1,
									"outlettype" : [ "" ],
									"patching_rect" : [ 114.0, 40.0, 25.0, 25.0 ],
									"id" : "obj-86",
									"numinlets" : 0,
									"comment" : ""
								}

							}
, 							{
								"box" : 								{
									"maxclass" : "outlet",
									"numoutlets" : 0,
									"patching_rect" : [ 160.0, 330.0, 25.0, 25.0 ],
									"id" : "obj-87",
									"numinlets" : 1,
									"comment" : "vertical"
								}

							}
 ],
						"lines" : [ 							{
								"patchline" : 								{
									"source" : [ "obj-70", 1 ],
									"destination" : [ "obj-18", 0 ],
									"hidden" : 0,
									"midpoints" : [  ]
								}

							}
, 							{
								"patchline" : 								{
									"source" : [ "obj-70", 0 ],
									"destination" : [ "obj-18", 0 ],
									"hidden" : 0,
									"midpoints" : [  ]
								}

							}
, 							{
								"patchline" : 								{
									"source" : [ "obj-17", 0 ],
									"destination" : [ "obj-1", 0 ],
									"hidden" : 0,
									"midpoints" : [ 159.5, 304.0, 59.5, 304.0 ]
								}

							}
, 							{
								"patchline" : 								{
									"source" : [ "obj-70", 2 ],
									"destination" : [ "obj-17", 0 ],
									"hidden" : 0,
									"midpoints" : [  ]
								}

							}
, 							{
								"patchline" : 								{
									"source" : [ "obj-70", 3 ],
									"destination" : [ "obj-17", 0 ],
									"hidden" : 0,
									"midpoints" : [  ]
								}

							}
, 							{
								"patchline" : 								{
									"source" : [ "obj-86", 0 ],
									"destination" : [ "obj-56", 1 ],
									"hidden" : 0,
									"midpoints" : [  ]
								}

							}
, 							{
								"patchline" : 								{
									"source" : [ "obj-85", 0 ],
									"destination" : [ "obj-69", 0 ],
									"hidden" : 0,
									"midpoints" : [  ]
								}

							}
, 							{
								"patchline" : 								{
									"source" : [ "obj-69", 0 ],
									"destination" : [ "obj-68", 0 ],
									"hidden" : 0,
									"midpoints" : [  ]
								}

							}
, 							{
								"patchline" : 								{
									"source" : [ "obj-69", 1 ],
									"destination" : [ "obj-67", 0 ],
									"hidden" : 0,
									"midpoints" : [  ]
								}

							}
, 							{
								"patchline" : 								{
									"source" : [ "obj-56", 0 ],
									"destination" : [ "obj-70", 0 ],
									"hidden" : 0,
									"midpoints" : [  ]
								}

							}
, 							{
								"patchline" : 								{
									"source" : [ "obj-68", 0 ],
									"destination" : [ "obj-56", 0 ],
									"hidden" : 0,
									"midpoints" : [  ]
								}

							}
, 							{
								"patchline" : 								{
									"source" : [ "obj-67", 0 ],
									"destination" : [ "obj-56", 0 ],
									"hidden" : 0,
									"midpoints" : [ 99.5, 149.0, 59.5, 149.0 ]
								}

							}
, 							{
								"patchline" : 								{
									"source" : [ "obj-67", 0 ],
									"destination" : [ "obj-1", 0 ],
									"hidden" : 0,
									"midpoints" : [ 99.5, 149.0, 37.0, 149.0, 37.0, 304.0, 59.5, 304.0 ]
								}

							}
, 							{
								"patchline" : 								{
									"source" : [ "obj-2", 0 ],
									"destination" : [ "obj-17", 0 ],
									"hidden" : 0,
									"midpoints" : [ 229.5, 231.0, 159.5, 231.0 ]
								}

							}
, 							{
								"patchline" : 								{
									"source" : [ "obj-2", 0 ],
									"destination" : [ "obj-18", 0 ],
									"hidden" : 0,
									"midpoints" : [ 229.5, 231.0, 49.5, 231.0 ]
								}

							}
, 							{
								"patchline" : 								{
									"source" : [ "obj-7", 0 ],
									"destination" : [ "obj-87", 0 ],
									"hidden" : 0,
									"midpoints" : [ 119.5, 318.0, 169.5, 318.0 ]
								}

							}
, 							{
								"patchline" : 								{
									"source" : [ "obj-70", 2 ],
									"destination" : [ "obj-7", 0 ],
									"hidden" : 0,
									"midpoints" : [  ]
								}

							}
, 							{
								"patchline" : 								{
									"source" : [ "obj-70", 3 ],
									"destination" : [ "obj-7", 0 ],
									"hidden" : 0,
									"midpoints" : [  ]
								}

							}
, 							{
								"patchline" : 								{
									"source" : [ "obj-18", 0 ],
									"destination" : [ "obj-87", 0 ],
									"hidden" : 0,
									"midpoints" : [  ]
								}

							}
, 							{
								"patchline" : 								{
									"source" : [ "obj-70", 1 ],
									"destination" : [ "obj-84", 0 ],
									"hidden" : 0,
									"midpoints" : [  ]
								}

							}
, 							{
								"patchline" : 								{
									"source" : [ "obj-70", 0 ],
									"destination" : [ "obj-84", 0 ],
									"hidden" : 0,
									"midpoints" : [  ]
								}

							}
, 							{
								"patchline" : 								{
									"source" : [ "obj-84", 0 ],
									"destination" : [ "obj-1", 0 ],
									"hidden" : 0,
									"midpoints" : [ 79.5, 304.0, 59.5, 304.0 ]
								}

							}
 ]
					}
,
					"saved_object_attributes" : 					{
						"default_fontsize" : 10.0,
						"globalpatchername" : "",
						"fontface" : 0,
						"fontsize" : 10.0,
						"default_fontface" : 0,
						"default_fontname" : "Futura Medium",
						"fontname" : "Futura Medium"
					}

				}

			}
, 			{
				"box" : 				{
					"maxclass" : "message",
					"text" : "up",
					"numoutlets" : 1,
					"outlettype" : [ "" ],
					"fontsize" : 10.0,
					"patching_rect" : [ 240.0, 80.0, 50.0, 18.0 ],
					"id" : "obj-82",
					"fontname" : "Futura Medium",
					"numinlets" : 2
				}

			}
, 			{
				"box" : 				{
					"maxclass" : "newobj",
					"text" : "t 1 256",
					"numoutlets" : 2,
					"outlettype" : [ "int", "int" ],
					"fontsize" : 10.0,
					"patching_rect" : [ 100.0, 170.0, 44.0, 20.0 ],
					"id" : "obj-51",
					"fontname" : "Futura Medium",
					"numinlets" : 1
				}

			}
, 			{
				"box" : 				{
					"maxclass" : "newobj",
					"text" : "sel \"256\"",
					"numoutlets" : 2,
					"outlettype" : [ "bang", "" ],
					"fontsize" : 10.0,
					"patching_rect" : [ 100.0, 140.0, 59.0, 20.0 ],
					"id" : "obj-50",
					"fontname" : "Futura Medium",
					"numinlets" : 1
				}

			}
, 			{
				"box" : 				{
					"maxclass" : "comment",
					"text" : "deals w/ case where multiple monomes are assigned to different applications",
					"linecount" : 3,
					"numoutlets" : 0,
					"fontsize" : 10.0,
					"patching_rect" : [ 260.0, 30.0, 150.0, 46.0 ],
					"id" : "obj-46",
					"fontname" : "Futura Medium",
					"numinlets" : 1
				}

			}
, 			{
				"box" : 				{
					"maxclass" : "newobj",
					"text" : "p mchooser",
					"numoutlets" : 2,
					"outlettype" : [ "", "" ],
					"fontsize" : 10.0,
					"patching_rect" : [ 190.0, 50.0, 69.0, 20.0 ],
					"id" : "obj-41",
					"fontname" : "Futura Medium",
					"color" : [ 0.945098, 0.913725, 0.407843, 1.0 ],
					"numinlets" : 1,
					"patcher" : 					{
						"fileversion" : 1,
						"rect" : [ 25.0, 69.0, 502.0, 689.0 ],
						"bglocked" : 0,
						"defrect" : [ 25.0, 69.0, 502.0, 689.0 ],
						"openrect" : [ 0.0, 0.0, 0.0, 0.0 ],
						"openinpresentation" : 0,
						"default_fontsize" : 10.0,
						"default_fontface" : 0,
						"default_fontname" : "Futura Medium",
						"gridonopen" : 0,
						"gridsize" : [ 10.0, 10.0 ],
						"gridsnaponopen" : 0,
						"toolbarvisible" : 1,
						"boxanimatetime" : 200,
						"imprint" : 0,
						"metadata" : [  ],
						"boxes" : [ 							{
								"box" : 								{
									"maxclass" : "newobj",
									"text" : "prepend set",
									"linecount" : 2,
									"numoutlets" : 1,
									"outlettype" : [ "" ],
									"fontsize" : 10.0,
									"patching_rect" : [ 270.0, 290.0, 50.0, 33.0 ],
									"id" : "obj-7",
									"fontname" : "Futura Medium",
									"numinlets" : 1
								}

							}
, 							{
								"box" : 								{
									"maxclass" : "newobj",
									"text" : "sel 1",
									"numoutlets" : 2,
									"outlettype" : [ "bang", "" ],
									"fontsize" : 10.0,
									"patching_rect" : [ 320.0, 330.0, 32.5, 20.0 ],
									"id" : "obj-8",
									"fontname" : "Futura Medium",
									"numinlets" : 2
								}

							}
, 							{
								"box" : 								{
									"maxclass" : "newobj",
									"text" : "unpack i s",
									"numoutlets" : 2,
									"outlettype" : [ "int", "" ],
									"fontsize" : 10.0,
									"patching_rect" : [ 230.0, 240.0, 59.0, 20.0 ],
									"id" : "obj-9",
									"fontname" : "Futura Medium",
									"numinlets" : 1
								}

							}
, 							{
								"box" : 								{
									"maxclass" : "newobj",
									"text" : "==",
									"numoutlets" : 1,
									"outlettype" : [ "int" ],
									"fontsize" : 10.0,
									"patching_rect" : [ 320.0, 290.0, 38.5, 20.0 ],
									"id" : "obj-10",
									"fontname" : "Futura Medium",
									"numinlets" : 2
								}

							}
, 							{
								"box" : 								{
									"maxclass" : "comment",
									"text" : "determines cable orientation of the monome set to mlr",
									"linecount" : 3,
									"numoutlets" : 0,
									"fontsize" : 10.0,
									"patching_rect" : [ 290.0, 210.0, 119.0, 46.0 ],
									"id" : "obj-6",
									"fontname" : "Futura Medium",
									"numinlets" : 1
								}

							}
, 							{
								"box" : 								{
									"maxclass" : "outlet",
									"numoutlets" : 0,
									"patching_rect" : [ 270.0, 370.0, 25.0, 25.0 ],
									"id" : "obj-3",
									"numinlets" : 1,
									"comment" : ""
								}

							}
, 							{
								"box" : 								{
									"maxclass" : "newobj",
									"text" : "prepend set",
									"linecount" : 2,
									"numoutlets" : 1,
									"outlettype" : [ "" ],
									"fontsize" : 10.0,
									"patching_rect" : [ 90.0, 290.0, 50.0, 33.0 ],
									"id" : "obj-37",
									"fontname" : "Futura Medium",
									"numinlets" : 1
								}

							}
, 							{
								"box" : 								{
									"maxclass" : "newobj",
									"text" : "sel 1",
									"numoutlets" : 2,
									"outlettype" : [ "bang", "" ],
									"fontsize" : 10.0,
									"patching_rect" : [ 140.0, 330.0, 32.5, 20.0 ],
									"id" : "obj-30",
									"fontname" : "Futura Medium",
									"numinlets" : 2
								}

							}
, 							{
								"box" : 								{
									"maxclass" : "newobj",
									"text" : "unpack i s",
									"numoutlets" : 2,
									"outlettype" : [ "int", "" ],
									"fontsize" : 10.0,
									"patching_rect" : [ 50.0, 240.0, 59.0, 20.0 ],
									"id" : "obj-29",
									"fontname" : "Futura Medium",
									"numinlets" : 1
								}

							}
, 							{
								"box" : 								{
									"maxclass" : "newobj",
									"text" : "==",
									"numoutlets" : 1,
									"outlettype" : [ "int" ],
									"fontsize" : 10.0,
									"patching_rect" : [ 140.0, 290.0, 38.5, 20.0 ],
									"id" : "obj-28",
									"fontname" : "Futura Medium",
									"numinlets" : 2
								}

							}
, 							{
								"box" : 								{
									"maxclass" : "comment",
									"text" : "decides which connected monome is controlling mlr",
									"linecount" : 2,
									"numoutlets" : 0,
									"fontsize" : 10.0,
									"patching_rect" : [ 30.0, 170.0, 128.0, 33.0 ],
									"id" : "obj-27",
									"fontname" : "Futura Medium",
									"numinlets" : 1
								}

							}
, 							{
								"box" : 								{
									"maxclass" : "newobj",
									"text" : "t 0",
									"numoutlets" : 1,
									"outlettype" : [ "int" ],
									"fontsize" : 10.0,
									"patching_rect" : [ 190.0, 190.0, 22.0, 20.0 ],
									"id" : "obj-24",
									"fontname" : "Futura Medium",
									"numinlets" : 1
								}

							}
, 							{
								"box" : 								{
									"maxclass" : "newobj",
									"text" : "t 1",
									"numoutlets" : 1,
									"outlettype" : [ "int" ],
									"fontsize" : 10.0,
									"patching_rect" : [ 160.0, 190.0, 22.0, 20.0 ],
									"id" : "obj-23",
									"fontname" : "Futura Medium",
									"numinlets" : 1
								}

							}
, 							{
								"box" : 								{
									"maxclass" : "newobj",
									"text" : "gate",
									"numoutlets" : 1,
									"outlettype" : [ "" ],
									"fontsize" : 10.0,
									"patching_rect" : [ 160.0, 240.0, 38.5, 20.0 ],
									"id" : "obj-20",
									"fontname" : "Futura Medium",
									"numinlets" : 2
								}

							}
, 							{
								"box" : 								{
									"maxclass" : "newobj",
									"text" : "unpack i s",
									"numoutlets" : 2,
									"outlettype" : [ "int", "" ],
									"fontsize" : 10.0,
									"patching_rect" : [ 110.0, 140.0, 69.0, 20.0 ],
									"id" : "obj-1",
									"fontname" : "Futura Medium",
									"numinlets" : 1
								}

							}
, 							{
								"box" : 								{
									"maxclass" : "newobj",
									"text" : "route /sys/type /sys/prefix /sys/cable",
									"numoutlets" : 4,
									"outlettype" : [ "", "", "", "" ],
									"fontsize" : 10.0,
									"patching_rect" : [ 50.0, 70.0, 200.0, 20.0 ],
									"id" : "obj-22",
									"fontname" : "Futura Medium",
									"numinlets" : 1
								}

							}
, 							{
								"box" : 								{
									"maxclass" : "newobj",
									"text" : "sel /mlr",
									"numoutlets" : 2,
									"outlettype" : [ "bang", "" ],
									"fontsize" : 10.0,
									"patching_rect" : [ 160.0, 170.0, 49.0, 20.0 ],
									"id" : "obj-21",
									"fontname" : "Futura Medium",
									"numinlets" : 1
								}

							}
, 							{
								"box" : 								{
									"maxclass" : "inlet",
									"numoutlets" : 1,
									"outlettype" : [ "" ],
									"patching_rect" : [ 50.0, 30.0, 25.0, 25.0 ],
									"id" : "obj-39",
									"numinlets" : 0,
									"comment" : ""
								}

							}
, 							{
								"box" : 								{
									"maxclass" : "outlet",
									"numoutlets" : 0,
									"patching_rect" : [ 90.0, 370.0, 25.0, 25.0 ],
									"id" : "obj-40",
									"numinlets" : 1,
									"comment" : ""
								}

							}
 ],
						"lines" : [ 							{
								"patchline" : 								{
									"source" : [ "obj-37", 0 ],
									"destination" : [ "obj-40", 0 ],
									"hidden" : 0,
									"midpoints" : [  ]
								}

							}
, 							{
								"patchline" : 								{
									"source" : [ "obj-29", 1 ],
									"destination" : [ "obj-37", 0 ],
									"hidden" : 0,
									"midpoints" : [  ]
								}

							}
, 							{
								"patchline" : 								{
									"source" : [ "obj-28", 0 ],
									"destination" : [ "obj-30", 0 ],
									"hidden" : 0,
									"midpoints" : [  ]
								}

							}
, 							{
								"patchline" : 								{
									"source" : [ "obj-29", 0 ],
									"destination" : [ "obj-28", 0 ],
									"hidden" : 0,
									"midpoints" : [ 59.5, 281.0, 149.5, 281.0 ]
								}

							}
, 							{
								"patchline" : 								{
									"source" : [ "obj-1", 0 ],
									"destination" : [ "obj-20", 1 ],
									"hidden" : 0,
									"midpoints" : [ 119.5, 229.0, 189.0, 229.0 ]
								}

							}
, 							{
								"patchline" : 								{
									"source" : [ "obj-20", 0 ],
									"destination" : [ "obj-28", 1 ],
									"hidden" : 0,
									"midpoints" : [  ]
								}

							}
, 							{
								"patchline" : 								{
									"source" : [ "obj-24", 0 ],
									"destination" : [ "obj-20", 0 ],
									"hidden" : 0,
									"midpoints" : [ 199.5, 216.0, 169.5, 216.0 ]
								}

							}
, 							{
								"patchline" : 								{
									"source" : [ "obj-21", 1 ],
									"destination" : [ "obj-24", 0 ],
									"hidden" : 0,
									"midpoints" : [  ]
								}

							}
, 							{
								"patchline" : 								{
									"source" : [ "obj-23", 0 ],
									"destination" : [ "obj-20", 0 ],
									"hidden" : 0,
									"midpoints" : [ 169.5, 216.0, 169.5, 216.0 ]
								}

							}
, 							{
								"patchline" : 								{
									"source" : [ "obj-21", 0 ],
									"destination" : [ "obj-23", 0 ],
									"hidden" : 0,
									"midpoints" : [  ]
								}

							}
, 							{
								"patchline" : 								{
									"source" : [ "obj-1", 1 ],
									"destination" : [ "obj-21", 0 ],
									"hidden" : 0,
									"midpoints" : [  ]
								}

							}
, 							{
								"patchline" : 								{
									"source" : [ "obj-30", 0 ],
									"destination" : [ "obj-40", 0 ],
									"hidden" : 0,
									"midpoints" : [ 149.5, 360.0, 99.5, 360.0 ]
								}

							}
, 							{
								"patchline" : 								{
									"source" : [ "obj-22", 1 ],
									"destination" : [ "obj-1", 0 ],
									"hidden" : 0,
									"midpoints" : [  ]
								}

							}
, 							{
								"patchline" : 								{
									"source" : [ "obj-22", 0 ],
									"destination" : [ "obj-29", 0 ],
									"hidden" : 0,
									"midpoints" : [  ]
								}

							}
, 							{
								"patchline" : 								{
									"source" : [ "obj-39", 0 ],
									"destination" : [ "obj-22", 0 ],
									"hidden" : 0,
									"midpoints" : [  ]
								}

							}
, 							{
								"patchline" : 								{
									"source" : [ "obj-9", 0 ],
									"destination" : [ "obj-10", 0 ],
									"hidden" : 0,
									"midpoints" : [ 239.5, 280.0, 329.5, 280.0 ]
								}

							}
, 							{
								"patchline" : 								{
									"source" : [ "obj-10", 0 ],
									"destination" : [ "obj-8", 0 ],
									"hidden" : 0,
									"midpoints" : [  ]
								}

							}
, 							{
								"patchline" : 								{
									"source" : [ "obj-9", 1 ],
									"destination" : [ "obj-7", 0 ],
									"hidden" : 0,
									"midpoints" : [  ]
								}

							}
, 							{
								"patchline" : 								{
									"source" : [ "obj-22", 2 ],
									"destination" : [ "obj-9", 0 ],
									"hidden" : 0,
									"midpoints" : [ 180.166672, 107.0, 239.5, 107.0 ]
								}

							}
, 							{
								"patchline" : 								{
									"source" : [ "obj-20", 0 ],
									"destination" : [ "obj-10", 1 ],
									"hidden" : 0,
									"midpoints" : [ 169.5, 267.0, 349.0, 267.0 ]
								}

							}
, 							{
								"patchline" : 								{
									"source" : [ "obj-7", 0 ],
									"destination" : [ "obj-3", 0 ],
									"hidden" : 0,
									"midpoints" : [  ]
								}

							}
, 							{
								"patchline" : 								{
									"source" : [ "obj-8", 0 ],
									"destination" : [ "obj-3", 0 ],
									"hidden" : 0,
									"midpoints" : [ 329.5, 359.0, 279.5, 359.0 ]
								}

							}
 ]
					}
,
					"saved_object_attributes" : 					{
						"default_fontsize" : 10.0,
						"globalpatchername" : "",
						"fontface" : 0,
						"fontsize" : 10.0,
						"default_fontface" : 0,
						"default_fontname" : "Futura Medium",
						"fontname" : "Futura Medium"
					}

				}

			}
, 			{
				"box" : 				{
					"maxclass" : "message",
					"text" : "\"256\"",
					"numoutlets" : 1,
					"outlettype" : [ "" ],
					"fontsize" : 10.0,
					"patching_rect" : [ 190.0, 80.0, 50.0, 18.0 ],
					"id" : "obj-36",
					"fontname" : "Futura Medium",
					"numinlets" : 2
				}

			}
, 			{
				"box" : 				{
					"maxclass" : "newobj",
					"text" : "r osc/sys",
					"numoutlets" : 1,
					"outlettype" : [ "" ],
					"fontsize" : 10.0,
					"patching_rect" : [ 190.0, 20.0, 51.0, 20.0 ],
					"id" : "obj-6",
					"fontname" : "Futura Medium",
					"numinlets" : 0
				}

			}
, 			{
				"box" : 				{
					"maxclass" : "textbutton",
					"bordercolor" : [ 0.501961, 0.360784, 0.262745, 0.654902 ],
					"texton" : "",
					"numoutlets" : 3,
					"presentation_rect" : [ 153.0, 155.0, 25.0, 25.0 ],
					"outlettype" : [ "", "", "int" ],
					"fontsize" : 10.0,
					"bgovercolor" : [ 0.65098, 0.65098, 0.65098, 0.501961 ],
					"mode" : 1,
					"border" : 1,
					"patching_rect" : [ 100.0, 410.0, 60.0, 20.0 ],
					"bgcolor" : [ 0.8, 0.8, 0.8, 0.501961 ],
					"borderoncolor" : [ 0.501961, 0.360784, 0.262745, 0.654902 ],
					"bgoveroncolor" : [ 1.0, 0.560784, 0.015686, 0.654902 ],
					"presentation" : 1,
					"text" : "",
					"rounded" : 2.0,
					"bgoncolor" : [ 1.0, 0.560784, 0.019608, 0.654902 ],
					"id" : "obj-44",
					"fontname" : "Futura Medium",
					"numinlets" : 1
				}

			}
, 			{
				"box" : 				{
					"maxclass" : "textbutton",
					"bordercolor" : [ 0.501961, 0.360784, 0.262745, 0.654902 ],
					"texton" : "",
					"numoutlets" : 3,
					"presentation_rect" : [ 100.0, 102.0, 50.0, 25.0 ],
					"outlettype" : [ "", "", "int" ],
					"fontsize" : 10.0,
					"bgovercolor" : [ 0.65098, 0.65098, 0.65098, 0.501961 ],
					"mode" : 1,
					"border" : 1,
					"patching_rect" : [ 100.0, 580.0, 51.0, 20.0 ],
					"bgcolor" : [ 0.8, 0.8, 0.8, 0.501961 ],
					"borderoncolor" : [ 0.501961, 0.360784, 0.262745, 0.654902 ],
					"bgoveroncolor" : [ 1.0, 0.560784, 0.015686, 0.654902 ],
					"presentation" : 1,
					"text" : "",
					"rounded" : 2.0,
					"bgoncolor" : [ 1.0, 0.560784, 0.019608, 0.654902 ],
					"id" : "obj-43",
					"fontname" : "Futura Medium",
					"numinlets" : 1
				}

			}
, 			{
				"box" : 				{
					"maxclass" : "textbutton",
					"bordercolor" : [ 0.501961, 0.360784, 0.262745, 0.654902 ],
					"texton" : "",
					"numoutlets" : 3,
					"presentation_rect" : [ 153.0, 102.0, 25.0, 50.0 ],
					"outlettype" : [ "", "", "int" ],
					"fontsize" : 10.0,
					"bgovercolor" : [ 0.65098, 0.65098, 0.65098, 0.501961 ],
					"mode" : 1,
					"border" : 1,
					"patching_rect" : [ 160.0, 580.0, 20.0, 36.0 ],
					"bgcolor" : [ 0.8, 0.8, 0.8, 0.501961 ],
					"borderoncolor" : [ 0.501961, 0.360784, 0.262745, 0.654902 ],
					"bgoveroncolor" : [ 1.0, 0.560784, 0.015686, 0.654902 ],
					"presentation" : 1,
					"text" : "",
					"rounded" : 2.0,
					"bgoncolor" : [ 1.0, 0.560784, 0.019608, 0.654902 ],
					"id" : "obj-42",
					"fontname" : "Futura Medium",
					"numinlets" : 1
				}

			}
, 			{
				"box" : 				{
					"maxclass" : "textbutton",
					"bordercolor" : [ 0.501961, 0.360784, 0.262745, 0.654902 ],
					"texton" : "",
					"numoutlets" : 3,
					"presentation_rect" : [ 100.0, 130.0, 50.0, 50.0 ],
					"outlettype" : [ "", "", "int" ],
					"fontsize" : 10.0,
					"bgovercolor" : [ 0.65098, 0.65098, 0.65098, 0.501961 ],
					"mode" : 1,
					"border" : 1,
					"patching_rect" : [ 100.0, 230.0, 60.0, 20.0 ],
					"bgcolor" : [ 0.8, 0.8, 0.8, 0.501961 ],
					"borderoncolor" : [ 0.501961, 0.360784, 0.262745, 0.654902 ],
					"bgoveroncolor" : [ 1.0, 0.560784, 0.015686, 0.654902 ],
					"presentation" : 1,
					"text" : "",
					"rounded" : 2.0,
					"bgoncolor" : [ 1.0, 0.560784, 0.019608, 0.654902 ],
					"id" : "obj-26",
					"fontname" : "Futura Medium",
					"numinlets" : 1
				}

			}
 ],
		"lines" : [ 			{
				"patchline" : 				{
					"source" : [ "obj-36", 0 ],
					"destination" : [ "obj-25", 0 ],
					"hidden" : 0,
					"midpoints" : [  ]
				}

			}
, 			{
				"patchline" : 				{
					"source" : [ "obj-25", 1 ],
					"destination" : [ "obj-15", 0 ],
					"hidden" : 0,
					"midpoints" : [ 213.0, 164.0, 149.5, 164.0 ]
				}

			}
, 			{
				"patchline" : 				{
					"source" : [ "obj-25", 1 ],
					"destination" : [ "obj-16", 0 ],
					"hidden" : 0,
					"midpoints" : [ 213.0, 333.0, 159.5, 333.0 ]
				}

			}
, 			{
				"patchline" : 				{
					"source" : [ "obj-25", 1 ],
					"destination" : [ "obj-88", 2 ],
					"hidden" : 0,
					"midpoints" : [ 213.0, 485.0, 199.5, 485.0 ]
				}

			}
, 			{
				"patchline" : 				{
					"source" : [ "obj-10", 0 ],
					"destination" : [ "obj-9", 0 ],
					"hidden" : 0,
					"midpoints" : [ 109.5, 449.0, 79.5, 449.0 ]
				}

			}
, 			{
				"patchline" : 				{
					"source" : [ "obj-6", 0 ],
					"destination" : [ "obj-41", 0 ],
					"hidden" : 0,
					"midpoints" : [  ]
				}

			}
, 			{
				"patchline" : 				{
					"source" : [ "obj-13", 2 ],
					"destination" : [ "obj-21", 0 ],
					"hidden" : 0,
					"midpoints" : [  ]
				}

			}
, 			{
				"patchline" : 				{
					"source" : [ "obj-12", 2 ],
					"destination" : [ "obj-21", 0 ],
					"hidden" : 0,
					"midpoints" : [  ]
				}

			}
, 			{
				"patchline" : 				{
					"source" : [ "obj-10", 2 ],
					"destination" : [ "obj-20", 0 ],
					"hidden" : 0,
					"midpoints" : [  ]
				}

			}
, 			{
				"patchline" : 				{
					"source" : [ "obj-11", 2 ],
					"destination" : [ "obj-17", 0 ],
					"hidden" : 0,
					"midpoints" : [  ]
				}

			}
, 			{
				"patchline" : 				{
					"source" : [ "obj-14", 0 ],
					"destination" : [ "obj-88", 2 ],
					"hidden" : 0,
					"midpoints" : [ 229.5, 164.0, 213.0, 164.0, 213.0, 485.0, 199.5, 485.0 ]
				}

			}
, 			{
				"patchline" : 				{
					"source" : [ "obj-14", 0 ],
					"destination" : [ "obj-16", 0 ],
					"hidden" : 0,
					"midpoints" : [ 229.5, 164.0, 213.0, 164.0, 213.0, 333.0, 159.5, 333.0 ]
				}

			}
, 			{
				"patchline" : 				{
					"source" : [ "obj-14", 0 ],
					"destination" : [ "obj-15", 0 ],
					"hidden" : 0,
					"midpoints" : [ 229.5, 164.0, 149.5, 164.0 ]
				}

			}
, 			{
				"patchline" : 				{
					"source" : [ "obj-11", 0 ],
					"destination" : [ "obj-9", 0 ],
					"hidden" : 0,
					"midpoints" : [ 109.5, 290.0, 79.5, 290.0 ]
				}

			}
, 			{
				"patchline" : 				{
					"source" : [ "obj-26", 0 ],
					"destination" : [ "obj-11", 0 ],
					"hidden" : 0,
					"midpoints" : [  ]
				}

			}
, 			{
				"patchline" : 				{
					"source" : [ "obj-44", 0 ],
					"destination" : [ "obj-10", 0 ],
					"hidden" : 0,
					"midpoints" : [  ]
				}

			}
, 			{
				"patchline" : 				{
					"source" : [ "obj-42", 0 ],
					"destination" : [ "obj-12", 0 ],
					"hidden" : 0,
					"midpoints" : [  ]
				}

			}
, 			{
				"patchline" : 				{
					"source" : [ "obj-43", 0 ],
					"destination" : [ "obj-13", 0 ],
					"hidden" : 0,
					"midpoints" : [  ]
				}

			}
, 			{
				"patchline" : 				{
					"source" : [ "obj-16", 0 ],
					"destination" : [ "obj-44", 0 ],
					"hidden" : 0,
					"midpoints" : [  ]
				}

			}
, 			{
				"patchline" : 				{
					"source" : [ "obj-91", 2 ],
					"destination" : [ "obj-16", 0 ],
					"hidden" : 0,
					"midpoints" : [  ]
				}

			}
, 			{
				"patchline" : 				{
					"source" : [ "obj-15", 0 ],
					"destination" : [ "obj-26", 0 ],
					"hidden" : 0,
					"midpoints" : [  ]
				}

			}
, 			{
				"patchline" : 				{
					"source" : [ "obj-50", 1 ],
					"destination" : [ "obj-15", 0 ],
					"hidden" : 0,
					"midpoints" : [  ]
				}

			}
, 			{
				"patchline" : 				{
					"source" : [ "obj-88", 0 ],
					"destination" : [ "obj-43", 0 ],
					"hidden" : 0,
					"midpoints" : [  ]
				}

			}
, 			{
				"patchline" : 				{
					"source" : [ "obj-88", 1 ],
					"destination" : [ "obj-42", 0 ],
					"hidden" : 0,
					"midpoints" : [  ]
				}

			}
, 			{
				"patchline" : 				{
					"source" : [ "obj-41", 0 ],
					"destination" : [ "obj-36", 0 ],
					"hidden" : 0,
					"midpoints" : [  ]
				}

			}
, 			{
				"patchline" : 				{
					"source" : [ "obj-41", 1 ],
					"destination" : [ "obj-82", 0 ],
					"hidden" : 0,
					"midpoints" : [  ]
				}

			}
, 			{
				"patchline" : 				{
					"source" : [ "obj-82", 0 ],
					"destination" : [ "obj-88", 1 ],
					"hidden" : 0,
					"midpoints" : [ 249.5, 477.0, 154.5, 477.0 ]
				}

			}
, 			{
				"patchline" : 				{
					"source" : [ "obj-7", 0 ],
					"destination" : [ "obj-8", 0 ],
					"hidden" : 0,
					"midpoints" : [  ]
				}

			}
, 			{
				"patchline" : 				{
					"source" : [ "obj-8", 0 ],
					"destination" : [ "obj-1", 0 ],
					"hidden" : 0,
					"midpoints" : [  ]
				}

			}
, 			{
				"patchline" : 				{
					"source" : [ "obj-25", 0 ],
					"destination" : [ "obj-50", 0 ],
					"hidden" : 0,
					"midpoints" : [ 199.5, 133.0, 109.5, 133.0 ]
				}

			}
, 			{
				"patchline" : 				{
					"source" : [ "obj-25", 0 ],
					"destination" : [ "obj-91", 0 ],
					"hidden" : 0,
					"midpoints" : [ 199.5, 302.0, 109.5, 302.0 ]
				}

			}
, 			{
				"patchline" : 				{
					"source" : [ "obj-25", 0 ],
					"destination" : [ "obj-88", 0 ],
					"hidden" : 0,
					"midpoints" : [ 199.5, 469.0, 109.5, 469.0 ]
				}

			}
, 			{
				"patchline" : 				{
					"source" : [ "obj-91", 1 ],
					"destination" : [ "obj-90", 0 ],
					"hidden" : 0,
					"midpoints" : [  ]
				}

			}
, 			{
				"patchline" : 				{
					"source" : [ "obj-91", 0 ],
					"destination" : [ "obj-90", 0 ],
					"hidden" : 0,
					"midpoints" : [  ]
				}

			}
, 			{
				"patchline" : 				{
					"source" : [ "obj-90", 0 ],
					"destination" : [ "obj-44", 0 ],
					"hidden" : 0,
					"midpoints" : [  ]
				}

			}
, 			{
				"patchline" : 				{
					"source" : [ "obj-50", 0 ],
					"destination" : [ "obj-51", 0 ],
					"hidden" : 0,
					"midpoints" : [  ]
				}

			}
, 			{
				"patchline" : 				{
					"source" : [ "obj-51", 0 ],
					"destination" : [ "obj-26", 0 ],
					"hidden" : 0,
					"midpoints" : [  ]
				}

			}
, 			{
				"patchline" : 				{
					"source" : [ "obj-11", 0 ],
					"destination" : [ "obj-23", 0 ],
					"hidden" : 0,
					"midpoints" : [  ]
				}

			}
, 			{
				"patchline" : 				{
					"source" : [ "obj-23", 0 ],
					"destination" : [ "obj-26", 0 ],
					"hidden" : 0,
					"midpoints" : [  ]
				}

			}
, 			{
				"patchline" : 				{
					"source" : [ "obj-10", 0 ],
					"destination" : [ "obj-24", 0 ],
					"hidden" : 0,
					"midpoints" : [  ]
				}

			}
, 			{
				"patchline" : 				{
					"source" : [ "obj-24", 0 ],
					"destination" : [ "obj-44", 0 ],
					"hidden" : 0,
					"midpoints" : [  ]
				}

			}
, 			{
				"patchline" : 				{
					"source" : [ "obj-13", 0 ],
					"destination" : [ "obj-27", 0 ],
					"hidden" : 0,
					"midpoints" : [  ]
				}

			}
, 			{
				"patchline" : 				{
					"source" : [ "obj-27", 0 ],
					"destination" : [ "obj-43", 0 ],
					"hidden" : 0,
					"midpoints" : [  ]
				}

			}
, 			{
				"patchline" : 				{
					"source" : [ "obj-12", 0 ],
					"destination" : [ "obj-28", 0 ],
					"hidden" : 0,
					"midpoints" : [  ]
				}

			}
, 			{
				"patchline" : 				{
					"source" : [ "obj-28", 0 ],
					"destination" : [ "obj-42", 0 ],
					"hidden" : 0,
					"midpoints" : [  ]
				}

			}
, 			{
				"patchline" : 				{
					"source" : [ "obj-13", 0 ],
					"destination" : [ "obj-9", 0 ],
					"hidden" : 0,
					"midpoints" : [  ]
				}

			}
, 			{
				"patchline" : 				{
					"source" : [ "obj-12", 0 ],
					"destination" : [ "obj-9", 0 ],
					"hidden" : 0,
					"midpoints" : [  ]
				}

			}
 ]
	}

}
